<?xml version="1.0" standalone="no"?><svg data-noselect="" 
  viewBox="86.37684738208998 70 624 468.03501885107994" 
  width="624" 
  height="468.03501885107994" 
  ref="svg_canvas" 
  preserveAspectRatio="none" 
  version="1.1" xmlns="http://www.w3.org/2000/svg" 
  style="background: #ffffff;">
    <defs></defs>
    <g id="shape_Ucm7ASqDQx" class=""  ref="shape_Ucm7ASqDQx" key="shape_Ucm7ASqDQx" transform="translate(291.40662894099,150) rotate(0,106.97021844111,109.53821209574) scale(1,1)" style="cursor:move;display:inline;opacity:1;" filter="">
            <g style="display:inline"><rect fill="rgba(0,0,0,0)" width="233.94043688222" height="239.07642419148" x="-10" y="-10"></rect><svg version="1.1" id="图层_1" xmlns="http://www.w3.org/2000/svg" xmlns:xlink="http://www.w3.org/1999/xlink" x="0px" y="0px" width="213.94043688222" height="219.07642419148" viewBox="0 0 120.8 123.7" style="enable-background:new 0 0 120.8 123.7;" xml:space="preserve" class="style-removed" preserveAspectRatio="none" data-parent="shape_Ucm7ASqDQx">

<g>
	<path d="M60,49.1c0-5.2-6.1-11.1-6.1-11.1s-6.1,5.6-6.1,11.1c0,2.6,1.6,4.9,3.8,5.9l1.6-8.3L53,55.4h0l-0.4,11.4H55
		l-0.4-11.3C57.6,55.1,60,52.2,60,49.1z" fill="#218C34" stroke-width="0"></path>
	<path d="M49,57.4c0-3.5-4-7.4-4-7.4s-4,3.7-4,7.4c0,1.7,1.1,3.3,2.6,3.9l1-5.5l-0.2,5.7h0l-0.3,7.5h1.6l-0.3-7.5
		C47.5,61.4,49,59.5,49,57.4z" fill="#00763A" stroke-width="0"></path>
	<path d="M45.8,64.6c-0.2,0-0.4,0.1-0.6,0.1c-0.8-1.1-2.1-1.8-3.5-1.7c-1.6,0.1-2.8,1.1-3.3,2.5
		c-0.5-0.3-1.1-0.4-1.7-0.4c-0.1,0-0.2,0-0.2,0c-0.7-1.7-2.5-2.8-4.4-2.7c-2.2,0.2-3.8,1.9-4,4c0,0-0.1,0-0.1,0
		c-1.6,0.1-2.9,1.4-2.8,3.1c0,0,0,0,0,0c0,0.1,0,0.2,0,0.3c0,0,0,0,0,0c0,0,0,0,0,0c0.1,0.5,0.2,1.3,0.5,2.5l3.4,1.1V73
		c1.1-0.3,2.5-1.6,3.7-1.6c0.9-0.1,1.7-0.4,2.4-1c0.6,0.4,1.2,0.7,2,0.6c0.9-0.1,1.6-0.5,2.1-1.2c0.8,0.8,1.9,1.2,3.1,1.1
		c0.2,0,0.4-0.1,0.6-0.1c0.8,1.1,2.1,1.8,3.5,1.7c2.2-0.2,3.8-2.1,3.6-4.2C49.8,66.1,47.9,64.5,45.8,64.6z" fill="#00763A" stroke-width="0"></path>
	<path d="M61.2,66.3c-0.1,0-0.2,0-0.2,0c-0.8-1.8-2.6-3-4.6-2.8c-2.5,0.2-4.4,2.4-4.2,4.9c0.2,2.5,2.4,4.4,4.9,4.2
		c1-0.1,1.8-0.4,2.5-1c0.6,0.4,1.3,0.7,2.1,0.6c1.7-0.1,2.9-1.6,2.8-3.3C64.4,67.4,62.9,66.1,61.2,66.3z" fill="#218C34" stroke-width="0"></path>
	<path d="M76.9,66.5c-0.2,0-0.4,0-0.6,0c-0.6-1.2-1.7-2.1-3.2-2.2c-1.6-0.2-3,0.6-3.7,1.9c-0.4-0.4-1-0.6-1.6-0.7
		c-0.1,0-0.2,0-0.2,0c-0.4-1.8-1.9-3.2-3.9-3.4c-1.5-0.2-2.9,0.5-3.8,1.6c0.8,0.7,1.2,1.2,1.5,2.1c0.1,0,0.2,0,0.3-0.1
		c2.1-0.2,3.5,1.5,3.6,3.7c0,0.5,0.4,0.7,0.3,1.1c0.4,0.4,1,0.7,1.6,0.7c0.9,0.1,1.7-0.2,2.3-0.8c0.6,0.9,1.6,1.5,2.8,1.7
		c0.2,0,0.4,0,0.6,0c0.6,1.2,1.7,2.1,3.2,2.2c2.2,0.2,4.1-1.4,4.3-3.5C80.6,68.7,79.1,66.7,76.9,66.5z" fill="#6AA42C" stroke-width="0"></path>
	<g>
		<path d="M119.4,50.1l-7.5,9.2l-10.5-7.8c2,7,2.3,14.5,0.4,22.1c-5.6,22.9-28.8,36.8-51.6,31.2
			c-22.6-5.6-36.5-28.2-31.4-50.8l0,0l-9.9,4.9l-7.4-9.1C-5.9,81.8,13.8,114,45.9,122c32.4,8,65.1-11.8,73.1-44.2
			C121.4,68.4,121.4,59,119.4,50.1z" fill="#00763A" stroke-width="0"></path>
	</g>
	<g>
		<g>
			<g>
				<path d="M82.7,16.6c3.7,2.1,5.6,4.6,6.6,6.6c0.9,2.1,0.8,3.9,0.3,5.3c-0.5,1.4-1.3,2.4-2,3.2
					c-0.7,0.7-1.3,1.1-1.3,1.1s-0.1-0.1-0.4-0.3c-0.2-0.2-0.6-0.5-0.9-0.9c-0.7-0.8-1.7-1.8-2.5-3.1c-0.4-0.6-0.8-1.4-1.1-2.2
					c-0.3-0.8-0.5-1.7-0.6-2.7C80.7,21.6,81.1,19.3,82.7,16.6z" fill="#DDE002" stroke-width="0"></path>
			</g>
			<g>
				<path d="M82.7,16.6c4,1.5,6.9,2.5,9.4,2.7c2.4,0.3,4.3,0,5.7-0.6c1.4-0.6,2.4-1.6,2.9-2.4c0.6-0.8,0.8-1.5,0.8-1.5
					s-0.2-0.2-0.6-0.5c-0.4-0.3-0.9-0.7-1.6-1.2c-1.4-0.9-3.4-2-5.5-2.5c-1.1-0.3-2.2-0.4-3.3-0.4c-1.1,0.1-2.2,0.3-3.2,0.7
					C85.4,11.8,83.8,13.6,82.7,16.6z" fill="#DDE002" stroke-width="0"></path>
			</g>
			<g>
				<path d="M93.6,23.6c0.2,0.9,0.5,1.7,0.7,2.5c0.2,0.8,0.5,1.5,0.8,2.2c0.5,1.4,1.1,2.5,1.7,3.6c1.2,2,2.6,3.5,4,4.7
					c1.4,1.1,2.8,1.9,3.9,2.5c1.1,0.5,1.8,0.8,1.8,0.8s0.2-0.7,0.3-1.9c0.1-1.2,0.1-2.9-0.6-4.9c-0.6-1.9-1.8-4.1-3.9-5.8
					c-1-0.9-2.3-1.7-3.7-2.3c-0.7-0.3-1.5-0.6-2.4-0.8C95.5,23.8,94.6,23.7,93.6,23.6z" fill="#DDE002" stroke-width="0"></path>
			</g>
			<g>
				<path d="M68.2,12.1c2.1,0.5,3.8,1.2,5.1,2c0.7,0.4,1.3,0.8,1.8,1.2c0.5,0.4,0.9,0.9,1.3,1.3
					c0.4,0.4,0.7,0.9,0.9,1.3c0.2,0.4,0.4,0.9,0.6,1.3c0.3,0.8,0.4,1.6,0.3,2.4c-0.1,1.5-0.6,2.7-1,3.6c-0.5,0.9-0.9,1.4-0.9,1.4
					s-0.7-0.2-1.6-0.7c-0.5-0.3-1-0.5-1.6-0.9c-0.6-0.4-1.2-0.8-1.7-1.3c-0.3-0.3-0.6-0.5-0.9-0.9c-0.3-0.3-0.6-0.6-0.8-1
					c-0.5-0.7-1-1.5-1.3-2.4C67.7,17.5,67.4,15.2,68.2,12.1z" fill="#A4C305" stroke-width="0"></path>
			</g>
			<g>
				<path d="M68.2,12.1c2.1,0.2,4,0.2,5.6,0.2c0.8,0,1.5,0,2.2-0.1c0.7-0.1,1.3-0.1,1.9-0.2c0.6-0.1,1.2-0.2,1.7-0.4
					c0.5-0.1,1-0.3,1.4-0.5c0.9-0.4,1.6-0.9,2.2-1.4c1.2-1,1.8-2.2,2.1-3.2c0.3-1,0.3-1.7,0.3-1.7s-1-0.5-2.6-1
					c-0.8-0.3-1.7-0.4-2.8-0.6c-1-0.2-2.1-0.2-3.2-0.2c-0.6,0-1.1,0.1-1.6,0.2c-0.5,0.1-1.1,0.2-1.6,0.4c-1,0.4-2,0.8-2.8,1.6
					C69.3,6.8,68.3,9,68.2,12.1z" fill="#DDE002" stroke-width="0"></path>
			</g>
			<g>
				<path d="M52.9,12.1c4.3-0.3,7.2,0.7,9.1,1.9c1.9,1.3,2.8,2.8,3.2,4.2c0.4,1.4,0.3,2.8,0.1,3.8
					c-0.2,1-0.4,1.6-0.4,1.6s-0.2,0-0.5-0.1c-0.3-0.1-0.7-0.1-1.3-0.2c-1-0.2-2.4-0.5-3.8-1.2c-1.4-0.7-2.9-1.6-4.1-3.2
					C54,17.4,53,15.2,52.9,12.1z" fill="#A4C305" stroke-width="0"></path>
			</g>
			<g>
				<path d="M52.9,12.1c4.2-0.9,7.1-1.8,9.3-2.9c2.2-1.1,3.6-2.4,4.4-3.7c0.8-1.3,1.1-2.6,1.1-3.6c0-1-0.2-1.7-0.2-1.7
					s-0.3,0-0.8-0.1C66.3,0,65.6,0,64.7,0c-1.7,0-3.9,0.2-6,1c-2.1,0.7-4,2-5.2,3.8C52.4,6.7,52.1,9,52.9,12.1z" fill="#A4C305" stroke-width="0"></path>
			</g>
			<g>
				<path d="M38.3,16.5c4-1.5,7.1-1.5,9.3-0.9c2.2,0.6,3.5,1.8,4.3,3.1c0.8,1.3,1.1,2.6,1.2,3.6c0.1,1,0.1,1.7,0.1,1.7
					s-0.2,0-0.5,0.1c-0.3,0-0.7,0.1-1.3,0.2c-0.5,0.1-1.1,0.1-1.8,0.1c-0.7,0-1.4,0-2.2-0.1c-0.8-0.1-1.6-0.3-2.4-0.6
					c-0.8-0.3-1.6-0.7-2.4-1.3C40.9,21.3,39.4,19.4,38.3,16.5z" fill="#69A729" stroke-width="0"></path>
			</g>
			<g>
				<path d="M38.3,16.5c3.7-2.1,6.3-3.8,8-5.5c1.8-1.7,2.7-3.3,3.1-4.8c0.4-1.5,0.3-2.8,0-3.8c-0.3-1-0.7-1.6-0.7-1.6
					S48.5,0.9,48,1c-0.5,0.1-1.2,0.3-2,0.5c-0.8,0.3-1.7,0.6-2.6,1c-0.9,0.5-1.9,1-2.8,1.7c-0.9,0.7-1.7,1.4-2.4,2.3
					c-0.7,0.9-1.2,1.8-1.5,2.9C36.3,11.5,36.7,13.8,38.3,16.5z" fill="#A4C305" stroke-width="0"></path>
			</g>
			<g>
				<path d="M25.6,24.9c0.9-0.6,1.7-1.2,2.5-1.6c0.8-0.4,1.5-0.8,2.3-1.1c0.7-0.3,1.4-0.5,2.1-0.6
					c0.7-0.1,1.3-0.2,1.8-0.2c1.1,0,2.1,0.2,2.9,0.5c0.8,0.3,1.5,0.7,2.1,1.2c1.1,1,1.8,2.2,2.2,3.1c0.4,0.9,0.5,1.6,0.5,1.6
					s-0.2,0.1-0.4,0.2c-0.3,0.1-0.7,0.3-1.2,0.5c-0.2,0.1-0.5,0.2-0.8,0.3c-0.3,0.1-0.6,0.2-0.9,0.3c-0.3,0.1-0.7,0.2-1,0.3
					c-0.3,0.1-0.7,0.2-1.1,0.2c-0.8,0.1-1.6,0.2-2.5,0.1c-0.4,0-0.9-0.1-1.3-0.2c-0.4-0.1-0.9-0.2-1.4-0.3
					C29.5,28.7,27.5,27.5,25.6,24.9z" fill="#69A729" stroke-width="0"></path>
			</g>
			<g>
				<path d="M25.6,24.9c0.8-0.8,1.4-1.5,2-2.2c0.6-0.7,1.2-1.4,1.7-2c0.5-0.6,1-1.2,1.4-1.8c0.4-0.6,0.8-1.1,1.1-1.6
					c0.6-1.1,1-2,1.3-3c0.2-0.9,0.3-1.8,0.3-2.5c0-1.5-0.6-2.8-1.1-3.6c-0.5-0.8-1.1-1.3-1.1-1.3s-1,0.5-2.4,1.4
					c-0.3,0.2-0.7,0.5-1.1,0.8c-0.4,0.3-0.7,0.6-1.1,1c-0.4,0.3-0.8,0.7-1.1,1.1c-0.4,0.4-0.7,0.8-1,1.3c-0.7,0.9-1.2,1.9-1.6,2.9
					c-0.2,0.5-0.3,1-0.4,1.6c-0.1,0.5-0.1,1.1-0.1,1.6C22.2,20.7,23.3,22.9,25.6,24.9z" fill="#69A729" stroke-width="0"></path>
			</g>
			<g>
				<path d="M16,36.7c2.5-3.5,5.1-5.2,7.2-5.9c1.1-0.4,2.1-0.4,2.9-0.4c0.9,0.1,1.6,0.3,2.3,0.6c1.4,0.6,2.3,1.6,3,2.3
					c0.6,0.8,1,1.4,1,1.4s-0.1,0.1-0.3,0.3c-0.2,0.2-0.5,0.5-0.9,0.9c-0.4,0.3-0.9,0.7-1.4,1.1c-0.6,0.4-1.2,0.8-1.9,1.1
					c-0.7,0.3-1.5,0.6-2.3,0.8c-0.9,0.2-1.7,0.3-2.7,0.3C20.8,39.2,18.5,38.6,16,36.7z" fill="#1E8830" stroke-width="0"></path>
			</g>
			<g>
				<path d="M16,36.7c1.9-3.8,3.1-6.7,3.6-9c0.3-1.2,0.4-2.2,0.3-3.2c0-0.9-0.2-1.8-0.4-2.5c-0.5-1.5-1.3-2.5-2.1-3.1
					c-0.8-0.7-1.4-0.9-1.4-0.9s-0.2,0.2-0.6,0.5c-0.3,0.4-0.8,0.9-1.3,1.5c-1,1.3-2.3,3.2-3,5.2c-0.4,1-0.6,2.1-0.7,3.2
					c-0.1,1.1,0,2.2,0.4,3.2C11.5,33.7,13.1,35.4,16,36.7z" fill="#69A729" stroke-width="0"></path>
			</g>
			<g>
				<path d="M10.2,50.8c1.4-4,3.3-6.5,5.2-7.7c0.9-0.7,1.8-1,2.7-1.2c0.9-0.2,1.7-0.2,2.4-0.1c1.5,0.2,2.7,0.8,3.5,1.4
					c0.8,0.5,1.3,1,1.3,1s-0.1,0.2-0.2,0.4c-0.1,0.3-0.4,0.7-0.7,1.1c-0.3,0.4-0.6,1-1.1,1.5c-0.4,0.5-0.9,1.1-1.5,1.6
					c-0.6,0.5-1.2,1-2,1.5c-0.8,0.4-1.6,0.8-2.5,1.1C15.5,51.8,13.1,51.9,10.2,50.8z" fill="#1E8830" stroke-width="0"></path>
			</g>
			<g>
				<path d="M10.2,50.8c0.7-4.2,1-7.3,0.8-9.7c-0.1-1.2-0.3-2.3-0.6-3.2c-0.3-0.9-0.7-1.7-1.2-2.3
					c-0.9-1.2-2-2-2.9-2.4c-0.9-0.4-1.6-0.5-1.6-0.5s-0.2,0.2-0.4,0.7c-0.2,0.4-0.5,1.1-0.8,1.8c-0.6,1.5-1.2,3.7-1.3,5.9
					c-0.1,1.1,0,2.2,0.3,3.3c0.2,1.1,0.7,2.1,1.3,2.9C5,49.2,7,50.4,10.2,50.8z" fill="#1E8830" stroke-width="0"></path>
			</g>
		</g>
	</g>
	<g>
		<path d="M93.6,77.1c-29.3-13.7-59.2-7.4-68.1-5c0.2,0.9,0.5,1.8,0.8,2.7c10-1,36.5-1.9,61.3,12
			C90.2,83.9,92.2,80.6,93.6,77.1z" fill="#00763A" stroke-width="0"></path>
		<path d="M64,99.1c1.9-0.2,3.7-0.5,5.5-1c-13.9-8.5-28.3-12-38.1-13.5C38.7,94.5,50.9,100.4,64,99.1z" fill="#00763A" stroke-width="0"></path>
		<path d="M29,80.8c10.6,1.3,28.2,5.2,44.8,16c4.3-1.7,8.1-4.2,11.4-7.3C62.1,76.8,37.8,77.2,27.6,78.1
			C28,79,28.5,79.9,29,80.8z" fill="#6CA529" stroke-width="0"></path>
		<circle cx="79.8" cy="45.4" r="6.9" fill="#DDE002" stroke-width="0"></circle>
	</g>
</g>
</svg></g>
        </g><g id="shape_MZLIRXVKkJ" class="brand_slogan"  ref="shape_MZLIRXVKkJ" key="shape_MZLIRXVKkJ" transform="translate(299.6917012593432,286.1508946968698) rotate(0,84.953448902173,31.827546777666) scale(1,1)" style="cursor:move;display:inline;opacity:1;" filter="">
            <g style="display:inline"><svg xmlns="http://www.w3.org/2000/svg" version="1.1" xmlns:xlink="http://www.w3.org/1999/xlink" width="279.0902922455237" height="205.50552949461223" viewBox="0 0 279.0902922455237 205.50552949461223" preserveAspectRatio="none" data-parent="shape_MZLIRXVKkJ"><rect fill="rgba(0,0,0,0)" width="197.37029224552367" height="82.92552949461223" x="20.43" y="61.29"></rect><rect width="197.37029224552367" height="82.92552949461223" fill="rgba(0,0,0,0)"></rect><g transform="translate(98.68514612276184, 86.17325929929974)"><path d="M6.45-2.09Q8.88-2.09 10.58-3.34L10.58-3.34Q12.30-4.59 12.30-6.35L12.30-6.35Q12.30-8.27 10.87-9.29L10.87-9.29Q9.87-10.00 7.72-10.46L7.72-10.46Q4.99-11.05 4.58-11.20L4.58-11.20Q3.14-11.75 3.14-12.85L3.14-12.85Q3.14-13.67 4.11-14.25L4.11-14.25Q5.08-14.81 6.45-14.81L6.45-14.81Q7.69-14.81 8.63-14.19L8.63-14.19Q9.56-13.57 9.73-12.63L9.73-12.63L11.78-12.63Q11.62-14.40 10.09-15.63L10.09-15.63Q8.55-16.86 6.45-16.86L6.45-16.86Q4.24-16.86 2.67-15.68L2.67-15.68Q1.11-14.50 1.11-12.85L1.11-12.85Q1.11-10.98 2.53-10.01L2.53-10.01Q3.52-9.34 5.69-8.89L5.69-8.89Q8.28-8.35 8.84-8.12L8.84-8.12Q10.26-7.55 10.26-6.35L10.26-6.35Q10.26-5.44 9.15-4.79L9.15-4.79Q8.03-4.13 6.45-4.13L6.45-4.13Q4.87-4.13 3.75-4.95L3.75-4.95Q2.63-5.78 2.63-6.93L2.63-6.93L0.60-6.93Q0.60-4.93 2.31-3.51L2.31-3.51Q4.03-2.09 6.45-2.09L6.45-2.09Z" transform="translate(-6.4492163085937495, -10.6439501953125) rotate(60.418119174820006, 6.4492163085937495, -100.78197542129192)  " fill="#FFFFFF" stroke="#FFFFFF" stroke-width="0.034" data-glyph-w="12.898432617187499" data-glyph-h="21.287900390625" data-glyph-ascender="17.11810546875" data-glyph-descender="-4.169794921875"></path><path d="M7.49-6.67L3.03-13.04L3.03-2.35L1.00-2.35L1.00-16.60L3.03-16.60L8.37-8.97L13.72-16.60L15.75-16.60L15.75-2.35L13.72-2.35L13.72-13.06L9.25-6.67L7.49-6.67Z" transform="translate(-8.37450439453125, -10.6439501953125) rotate(51.412114883360545, 8.37450439453125, -100.78197542129192)  " fill="#FFFFFF" stroke="#FFFFFF" stroke-width="0.034" data-glyph-w="16.7490087890625" data-glyph-h="21.287900390625" data-glyph-ascender="17.11810546875" data-glyph-descender="-4.169794921875"></path><path d="M10.62-6.16L4.03-6.16L2.41-2.35L0.20-2.35L6.24-16.60L8.40-16.60L14.44-2.35L12.24-2.35L10.62-6.16ZM4.90-8.20L9.76-8.20L7.32-13.93L4.90-8.20Z" transform="translate(-7.3220800781249995, -10.6439501953125) rotate(41.87581087756548, 7.3220800781249995, -100.78197542129192)  " fill="#FFFFFF" stroke="#FFFFFF" stroke-width="0.034" data-glyph-w="14.644160156249999" data-glyph-h="21.287900390625" data-glyph-ascender="17.11810546875" data-glyph-descender="-4.169794921875"></path><path d="M6.81-7.95L3.03-7.95L3.03-2.35L1.00-2.35L1.00-16.60L7.87-16.60Q9.66-16.60 10.92-15.33L10.92-15.33Q12.19-14.07 12.19-12.27L12.19-12.27Q12.19-10.48 10.92-9.22L10.92-9.22Q10.15-8.44 9.17-8.14L9.17-8.14L13.21-2.35L10.73-2.35L6.81-7.95ZM7.87-14.56L3.03-14.56L3.03-9.99L7.87-9.99Q8.82-9.99 9.49-10.65L9.49-10.65Q10.16-11.32 10.16-12.27L10.16-12.27Q10.16-13.22 9.49-13.90L9.49-13.90Q8.82-14.56 7.87-14.56L7.87-14.56Z" transform="translate(-6.3943505859375, -10.6439501953125) rotate(33.542529652291755, 6.3943505859375, -100.78197542129192)  " fill="#FFFFFF" stroke="#FFFFFF" stroke-width="0.034" data-glyph-w="12.788701171875" data-glyph-h="21.287900390625" data-glyph-ascender="17.11810546875" data-glyph-descender="-4.169794921875"></path><path d="M4.92-2.35L4.92-14.56L0.60-14.56L0.60-16.60L11.28-16.60L11.28-14.56L6.95-14.56L6.95-2.35L4.92-2.35Z" transform="translate(-5.94046142578125, -10.6439501953125) rotate(26.04863711770924, 5.94046142578125, -100.78197542129192)  " fill="#FFFFFF" stroke="#FFFFFF" stroke-width="0.034" data-glyph-w="11.8809228515625" data-glyph-h="21.287900390625" data-glyph-ascender="17.11810546875" data-glyph-descender="-4.169794921875"></path><path d="" transform="translate(-4.06557, -10.215) rotate(19.969572099837777, 4.06557, -102.0712201478544)  " fill="#FFFFFF" stroke="#FFFFFF" stroke-width="0.034" data-glyph-w="8.13114" data-glyph-h="20.43" data-glyph-ascender="17.9784" data-glyph-descender="-2.4516"></path><path d="M10.62-6.16L4.03-6.16L2.41-2.35L0.20-2.35L6.24-16.60L8.40-16.60L14.44-2.35L12.24-2.35L10.62-6.16ZM4.90-8.20L9.76-8.20L7.32-13.93L4.90-8.20Z" transform="translate(-7.3220800781249995, -10.6439501953125) rotate(13.051118391275107, 7.3220800781249995, -100.78197542129192)  " fill="#FFFFFF" stroke="#FFFFFF" stroke-width="0.034" data-glyph-w="14.644160156249999" data-glyph-h="21.287900390625" data-glyph-ascender="17.11810546875" data-glyph-descender="-4.169794921875"></path><path d="M15.28-10.49L7.46-10.49L7.46-8.46L13.23-8.46Q12.95-6.89 11.75-5.70L11.75-5.70Q10.19-4.13 7.97-4.13L7.97-4.13Q5.76-4.13 4.20-5.70L4.20-5.70Q2.63-7.26 2.63-9.48L2.63-9.48Q2.63-11.69 4.20-13.26L4.20-13.26Q5.76-14.81 7.97-14.81L7.97-14.81Q10.46-14.81 12.07-12.91L12.07-12.91L13.63-14.22Q11.41-16.86 7.97-16.86L7.97-16.86Q4.92-16.86 2.75-14.69L2.75-14.69Q0.60-12.53 0.60-9.48L0.60-9.48Q0.60-6.41 2.75-4.26L2.75-4.26Q4.92-2.09 7.97-2.09L7.97-2.09Q11.03-2.09 13.19-4.26L13.19-4.26Q15.35-6.41 15.35-9.48L15.35-9.48Q15.35-9.99 15.28-10.49L15.28-10.49Z" transform="translate(-7.97548095703125, -10.6439501953125) rotate(3.757237112033464, 7.97548095703125, -100.78197542129192)  " fill="#FFFFFF" stroke="#FFFFFF" stroke-width="0.034" data-glyph-w="15.9509619140625" data-glyph-h="21.287900390625" data-glyph-ascender="17.11810546875" data-glyph-descender="-4.169794921875"></path><path d="M6.81-7.95L3.03-7.95L3.03-2.35L1.00-2.35L1.00-16.60L7.87-16.60Q9.66-16.60 10.92-15.33L10.92-15.33Q12.19-14.07 12.19-12.27L12.19-12.27Q12.19-10.48 10.92-9.22L10.92-9.22Q10.15-8.44 9.17-8.14L9.17-8.14L13.21-2.35L10.73-2.35L6.81-7.95ZM7.87-14.56L3.03-14.56L3.03-9.99L7.87-9.99Q8.82-9.99 9.49-10.65L9.49-10.65Q10.16-11.32 10.16-12.27L10.16-12.27Q10.16-13.22 9.49-13.90L9.49-13.90Q8.82-14.56 7.87-14.56L7.87-14.56Z" transform="translate(-6.3943505859375, -10.6439501953125) rotate(-4.9730113279714825, 6.3943505859375, -100.78197542129192)  " fill="#FFFFFF" stroke="#FFFFFF" stroke-width="0.034" data-glyph-w="12.788701171875" data-glyph-h="21.287900390625" data-glyph-ascender="17.11810546875" data-glyph-descender="-4.169794921875"></path><path d="M3.03-2.35L3.03-16.60L1.00-16.60L1.00-2.35L3.03-2.35Z" transform="translate(-2.015068359375, -10.6439501953125) rotate(-10.082070290084756, 2.015068359375, -100.78197542129192)  " fill="#FFFFFF" stroke="#FFFFFF" stroke-width="0.034" data-glyph-w="4.03013671875" data-glyph-h="21.287900390625" data-glyph-ascender="17.11810546875" data-glyph-descender="-4.169794921875"></path><path d="M7.98-2.09Q11.41-2.09 13.63-4.73L13.63-4.73L12.07-6.05Q10.46-4.13 7.98-4.13L7.98-4.13Q5.77-4.13 4.20-5.70L4.20-5.70Q2.63-7.26 2.63-9.48L2.63-9.48Q2.63-11.69 4.20-13.26L4.20-13.26Q5.77-14.81 7.98-14.81L7.98-14.81Q10.46-14.81 12.07-12.91L12.07-12.91L13.63-14.22Q11.41-16.86 7.98-16.86L7.98-16.86Q4.92-16.86 2.76-14.69L2.76-14.69Q0.60-12.53 0.60-9.48L0.60-9.48Q0.60-6.41 2.76-4.26L2.76-4.26Q4.92-2.09 7.98-2.09L7.98-2.09Z" transform="translate(-7.1125927734375, -10.6439501953125) rotate(-15.627490159994181, 7.1125927734375, -100.78197542129192)  " fill="#FFFFFF" stroke="#FFFFFF" stroke-width="0.034" data-glyph-w="14.225185546875" data-glyph-h="21.287900390625" data-glyph-ascender="17.11810546875" data-glyph-descender="-4.169794921875"></path><path d="M6.59-2.09Q8.92-2.09 10.55-3.44L10.55-3.44Q12.19-4.78 12.19-6.67L12.19-6.67L12.19-16.60L10.16-16.60L10.16-6.67Q10.16-5.63 9.12-4.88L9.12-4.88Q8.07-4.13 6.59-4.13L6.59-4.13Q5.12-4.13 4.08-4.88L4.08-4.88Q3.03-5.63 3.03-6.67L3.03-6.67L3.03-16.60L1.00-16.60L1.00-6.67Q1.00-4.78 2.63-3.44L2.63-3.44Q4.28-2.09 6.59-2.09L6.59-2.09Z" transform="translate(-6.5938623046875, -10.6439501953125) rotate(-23.954710817104072, 6.5938623046875, -100.78197542129192)  " fill="#FFFFFF" stroke="#FFFFFF" stroke-width="0.034" data-glyph-w="13.187724609375" data-glyph-h="21.287900390625" data-glyph-ascender="17.11810546875" data-glyph-descender="-4.169794921875"></path><path d="M1.00-2.35L9.65-2.35L9.65-4.39L3.03-4.39L3.03-16.60L1.00-16.60L1.00-2.35Z" transform="translate(-5.12246337890625, -10.6439501953125) rotate(-31.072848125528793, 5.12246337890625, -100.78197542129192)  " fill="#FFFFFF" stroke="#FFFFFF" stroke-width="0.034" data-glyph-w="10.2449267578125" data-glyph-h="21.287900390625" data-glyph-ascender="17.11810546875" data-glyph-descender="-4.169794921875"></path><path d="M4.92-2.35L4.92-14.56L0.60-14.56L0.60-16.60L11.28-16.60L11.28-14.56L6.95-14.56L6.95-2.35L4.92-2.35Z" transform="translate(-5.94046142578125, -10.6439501953125) rotate(-37.794018219222295, 5.94046142578125, -100.78197542129192)  " fill="#FFFFFF" stroke="#FFFFFF" stroke-width="0.034" data-glyph-w="11.8809228515625" data-glyph-h="21.287900390625" data-glyph-ascender="17.11810546875" data-glyph-descender="-4.169794921875"></path><path d="M6.59-2.09Q8.92-2.09 10.55-3.44L10.55-3.44Q12.19-4.78 12.19-6.67L12.19-6.67L12.19-16.60L10.16-16.60L10.16-6.67Q10.16-5.63 9.12-4.88L9.12-4.88Q8.07-4.13 6.59-4.13L6.59-4.13Q5.12-4.13 4.08-4.88L4.08-4.88Q3.03-5.63 3.03-6.67L3.03-6.67L3.03-16.60L1.00-16.60L1.00-6.67Q1.00-4.78 2.63-3.44L2.63-3.44Q4.28-2.09 6.59-2.09L6.59-2.09Z" transform="translate(-6.5938623046875, -10.6439501953125) rotate(-45.409122117081516, 6.5938623046875, -100.78197542129192)  " fill="#FFFFFF" stroke="#FFFFFF" stroke-width="0.034" data-glyph-w="13.187724609375" data-glyph-h="21.287900390625" data-glyph-ascender="17.11810546875" data-glyph-descender="-4.169794921875"></path><path d="M6.81-7.95L3.03-7.95L3.03-2.35L1.00-2.35L1.00-16.60L7.87-16.60Q9.66-16.60 10.92-15.33L10.92-15.33Q12.19-14.07 12.19-12.27L12.19-12.27Q12.19-10.48 10.92-9.22L10.92-9.22Q10.15-8.44 9.17-8.14L9.17-8.14L13.21-2.35L10.73-2.35L6.81-7.95ZM7.87-14.56L3.03-14.56L3.03-9.99L7.87-9.99Q8.82-9.99 9.49-10.65L9.49-10.65Q10.16-11.32 10.16-12.27L10.16-12.27Q10.16-13.22 9.49-13.90L9.49-13.90Q8.82-14.56 7.87-14.56L7.87-14.56Z" transform="translate(-6.3943505859375, -10.6439501953125) rotate(-53.29998186639526, 6.3943505859375, -100.78197542129192)  " fill="#FFFFFF" stroke="#FFFFFF" stroke-width="0.034" data-glyph-w="12.788701171875" data-glyph-h="21.287900390625" data-glyph-ascender="17.11810546875" data-glyph-descender="-4.169794921875"></path><path d="M1.00-16.60L11.17-16.60L11.17-14.56L3.03-14.56L3.03-10.49L11.17-10.49L11.17-8.46L3.03-8.46L3.03-4.39L11.17-4.39L11.17-2.35L1.00-2.35L1.00-16.60Z" transform="translate(-5.885595703125, -10.6439501953125) rotate(-60.76054127607667, 5.885595703125, -100.78197542129192)  " fill="#FFFFFF" stroke="#FFFFFF" stroke-width="0.034" data-glyph-w="11.77119140625" data-glyph-h="21.287900390625" data-glyph-ascender="17.11810546875" data-glyph-descender="-4.169794921875"></path></g></svg></g>
        </g><g id="shape_lrue3SX2zI" class="brand_name"  ref="shape_lrue3SX2zI" key="shape_lrue3SX2zI" transform="translate(234.26684738208996,210.38862574345) rotate(0,194.23770390113998,193.23998999999998) scale(1,1)" style="cursor:move;display:inline;opacity:1;" filter="">
            <g style="display:inline"><svg xmlns="http://www.w3.org/2000/svg" version="1.1" xmlns:xlink="http://www.w3.org/1999/xlink" width="437.44" height="386.47997999999995" viewBox="0 0 437.44 386.47997999999995" preserveAspectRatio="none" data-parent="shape_lrue3SX2zI"><rect fill="rgba(0,0,0,0)" width="219" height="49" x="54.61" y="168.73998999999998"></rect><g data-width="218.44" transform="translate(54.89, 0)"><path d="M10.87-12.72L1.69-12.72L10.32-24.63L1.75-24.63L1.75-27.69L12.12-27.69L12.12-35.88L11.52-35.88L9.83-30.80L1.75-30.80L5.57-42.00L13.60-42.00L12.56-38.94L28.23-38.94L28.23-35.88L20.75-35.88L20.75-27.69L29.87-27.69L29.87-24.63L19.82-24.63L17.91-22.06L23.54-22.06L29.87-12.72L21.24-12.72L16.33-19.99L10.87-12.72ZM34.51-40.74L48.77-40.74Q50.19-40.74 51.14-39.81Q52.10-38.88 52.10-37.41L52.10-37.41L52.10-16.44Q52.10-15.02 51.14-14.06Q50.19-13.11 48.77-13.11L48.77-13.11L34.51-13.11Q33.09-13.11 32.14-14.06Q31.18-15.02 31.18-16.44L31.18-16.44L31.18-37.41Q31.18-38.88 32.14-39.81Q33.09-40.74 34.51-40.74L34.51-40.74ZM44.56-16.98L44.56-36.86Q44.56-37.19 44.32-37.44Q44.07-37.68 43.74-37.68L43.74-37.68L39.54-37.68Q39.21-37.68 38.96-37.44Q38.72-37.19 38.72-36.86L38.72-36.86L38.72-16.98Q38.72-16.66 38.96-16.41Q39.21-16.16 39.54-16.16L39.54-16.16L43.74-16.16Q44.07-16.16 44.32-16.41Q44.56-16.66 44.56-16.98L44.56-16.98ZM8.57-10.38L45.98-10.38Q47.40-10.38 48.36-9.45Q49.31-8.52 49.31-7.04L49.31-7.04L49.31 5.35Q49.31 6.83 48.36 7.75Q47.40 8.68 45.98 8.68L45.98 8.68L8.57 8.68Q7.15 8.68 6.20 7.75Q5.24 6.83 5.24 5.35L5.24 5.35L5.24-7.04Q5.24-8.52 6.20-9.45Q7.15-10.38 8.57-10.38L8.57-10.38ZM40.08-7.32L14.53-7.32Q14.20-7.32 13.95-7.07Q13.71-6.83 13.71-6.50L13.71-6.50L13.71-2.40L40.90-2.40L40.90-6.50Q40.90-6.83 40.66-7.07Q40.41-7.32 40.08-7.32L40.08-7.32ZM14.53 5.62L40.08 5.62Q40.41 5.62 40.66 5.38Q40.90 5.13 40.90 4.81L40.90 4.81L40.90 0.66L13.71 0.66L13.71 4.81Q13.71 5.13 13.95 5.38Q14.20 5.62 14.53 5.62L14.53 5.62Z" transform="translate(0 210.73998999999998) skewX(0)" fill="#00763a" stroke="#00763a" stroke-width="0.091" data-glyph-w="54.61" data-glyph-h="57.17667" data-glyph-ascender="46.90999" data-glyph-descender="-10.26668"></path><path d="M10.54-22.55L10.54-25.56L2.79-25.56L2.79-28.62L10.54-28.62L10.54-31.13L4.10-31.13L4.10-34.19L10.54-34.19L10.54-36.70L3.44-36.70L3.44-39.76L10.54-39.76L10.54-42.00L19.17-42.00L19.17-39.76L26.27-39.76L26.27-36.70L19.17-36.70L19.17-34.19L25.67-34.19L25.67-31.13L19.17-31.13L19.17-28.62L26.92-28.62L26.92-25.56L19.17-25.56L19.17-22.55L10.54-22.55ZM35.50-22.55L35.50-25.56L27.74-25.56L27.74-28.62L35.50-28.62L35.50-31.13L29.05-31.13L29.05-34.19L35.50-34.19L35.50-36.70L28.40-36.70L28.40-39.76L35.50-39.76L35.50-42.00L44.12-42.00L44.12-39.76L51.22-39.76L51.22-36.70L44.12-36.70L44.12-34.19L50.62-34.19L50.62-31.13L44.12-31.13L44.12-28.62L51.88-28.62L51.88-25.56L44.12-25.56L44.12-22.55L35.50-22.55ZM49.97-17.42L49.97-9.50Q49.97-8.79 49.61-8.19Q49.26-7.59 48.68-7.13Q48.11-6.66 47.43-6.39Q46.75-6.12 46.04-6.12L46.04-6.12L4.81-6.12L4.81-9.12L40.08-9.12Q40.63-9.12 40.98-9.47Q41.34-9.83 41.34-10.38L41.34-10.38L41.34-11.96L6.39-11.96L6.39-15.02L41.34-15.02L41.34-16.55Q41.34-17.09 40.98-17.45Q40.63-17.80 40.08-17.80L40.08-17.80L4.81-17.80L4.81-20.81L46.04-20.81Q46.75-20.81 47.43-20.53Q48.11-20.26 48.68-19.80Q49.26-19.33 49.61-18.73Q49.97-18.13 49.97-17.42L49.97-17.42ZM30.14 4.48L27.58-4.31L36.21-4.31L38.77 4.48L30.14 4.48ZM24.36-3.11L24.36 5.19Q24.36 5.52 24.60 5.76Q24.85 6.01 25.18 6.01L25.18 6.01L42.27 6.01L40.63 9.07L19.06 9.07Q17.64 9.07 16.68 8.11Q15.73 7.15 15.73 5.73L15.73 5.73L15.73-3.11L24.36-3.11ZM1.69 9.23L4.42-2.08L13.05-2.08L10.32 9.23L1.69 9.23ZM50.19-2.08L52.92 9.23L44.29 9.23L41.56-2.08L50.19-2.08Z" transform="translate(54.61 210.73998999999998) skewX(0)" fill="#00763a" stroke="#00763a" stroke-width="0.091" data-glyph-w="54.61" data-glyph-h="57.17667" data-glyph-ascender="46.90999" data-glyph-descender="-10.26668"></path><path d="M19.88-13.65L19.88 4.59Q19.88 5.30 20.59 5.19L20.59 5.19L34.35 2.62L34.35 5.68L14.74 9.23Q13.27 9.50 12.26 8.66Q11.25 7.81 11.25 6.33L11.25 6.33L11.25-12.07L1.69-9.88L1.69-12.94L3.71-13.38Q4.42-13.54 4.81-14.03L4.81-14.03L21.30-33.80L13.05-33.80Q12.56-33.80 12.21-33.45Q11.85-33.09 11.85-32.60L11.85-32.60L11.85-23.81L3.17-23.81L3.17-33.20Q3.17-34.68 4.23-35.74Q5.30-36.81 6.83-36.81L6.83-36.81L22.99-36.81L22.99-42.00L31.62-42.00L31.62-36.81L48.06-36.81Q49.48-36.81 50.46-35.82Q51.44-34.84 51.44-33.42L51.44-33.42L51.44-23.81L42.81-23.81L42.81-32.60Q42.81-33.09 42.46-33.45Q42.10-33.80 41.61-33.80L41.61-33.80L31.24-33.80Q31.13-33.53 30.99-33.34Q30.85-33.15 30.69-32.93L30.69-32.93L14.74-13.65L19.88-13.65ZM50.24 5.79L52.92 6.17L52.92 9.23L43.96 7.92Q41.56 7.59 40.63 5.35L40.63 5.35L28.23-23.92L36.86-23.92L41.18-13.82L52.48-16.00L52.48-12.94L42.38-10.98L49.09 4.91Q49.48 5.68 50.24 5.79L50.24 5.79Z" transform="translate(109.22 210.73998999999998) skewX(0)" fill="#00763a" stroke="#00763a" stroke-width="0.091" data-glyph-w="54.61" data-glyph-h="57.17667" data-glyph-ascender="46.90999" data-glyph-descender="-10.26668"></path><path d="M38.28 5.13L52.48 5.13L52.48 8.19L2.18 8.19L2.18 5.13L16.33 5.13L16.33-42.00L24.96-42.00L24.96 5.13L29.65 5.13L29.65-42.00L38.28-42.00L38.28 5.13ZM14.53-1.42L6.77-4.37Q5.68-4.81 5.00-5.68Q4.31-6.55 4.20-7.81L4.20-7.81L2.18-38.17L10.27-38.17L12.51-5.84Q12.51-5.57 12.70-5.35Q12.89-5.13 13.16-5.02L13.16-5.02L14.53-4.48L14.53-1.42ZM52.43-38.17L50.41-7.81Q50.30-6.55 49.61-5.68Q48.93-4.81 47.84-4.37L47.84-4.37L40.08-1.42L40.08-4.48L41.45-5.02Q41.72-5.13 41.91-5.35Q42.10-5.57 42.10-5.84L42.10-5.84L44.34-38.17L52.43-38.17Z" transform="translate(163.82999999999998 210.73998999999998) skewX(0)" fill="#00763a" stroke="#00763a" stroke-width="0.091" data-glyph-w="54.61" data-glyph-h="57.17667" data-glyph-ascender="46.90999" data-glyph-descender="-10.26668"></path></g></svg></g>
        </g><g id="shape_MCvqRQzKPG" class="brand_slogan"  ref="shape_MCvqRQzKPG" key="shape_MCvqRQzKPG" transform="translate(272.600290902195,373.22501885108) rotate(0,114.29562177447299,72.81) scale(1,1)" style="cursor:move;display:inline;opacity:1;" filter="">
            <g style="display:inline"><svg xmlns="http://www.w3.org/2000/svg" version="1.1" xmlns:xlink="http://www.w3.org/1999/xlink" width="292.08000000000004" height="145.62" viewBox="0 0 292.08000000000004 145.62" preserveAspectRatio="none" data-parent="shape_MCvqRQzKPG"><rect fill="rgba(0,0,0,0)" width="211" height="24" x="20.27" y="60.81"></rect><g data-width="210.7377676171875" transform="translate(20.40111619140625, 0)"><path d="M6.40-2.08Q4.00-2.08 2.30-3.48L2.30-3.48Q0.59-4.89 0.59-6.88L0.59-6.88L3.22-6.88Q3.22-5.98 4.15-5.34L4.15-5.34Q5.09-4.70 6.40-4.70L6.40-4.70Q7.77-4.70 8.65-5.18L8.65-5.18Q9.58-5.68 9.58-6.52L9.58-6.52Q9.58-7.50 8.25-7.94L8.25-7.94Q8.08-8.00 5.34-8.54L5.34-8.54Q3.37-8.94 2.42-9.64L2.42-9.64Q1.10-10.62 1.10-12.53L1.10-12.53Q1.10-14.40 2.65-15.58L2.65-15.58Q4.15-16.73 6.40-16.73L6.40-16.73Q8.60-16.73 10.14-15.45L10.14-15.45Q11.70-14.17 11.70-12.37L11.70-12.37L9.08-12.37Q9.08-13.08 8.29-13.59L8.29-13.59Q7.51-14.09 6.40-14.09L6.40-14.09Q5.24-14.09 4.50-13.71L4.50-13.71Q3.72-13.28 3.72-12.53L3.72-12.53Q3.72-11.67 5.05-11.26L5.05-11.26Q5.51-11.11 6.40-10.96L6.40-10.96Q7.72-10.72 7.97-10.66L7.97-10.66Q9.92-10.25 10.88-9.50L10.88-9.50Q12.20-8.46 12.20-6.52L12.20-6.52Q12.20-4.55 10.50-3.30L10.50-3.30Q8.86-2.08 6.40-2.08L6.40-2.08Z" transform="translate(0 78.81) " fill="#00763a" stroke="#00763a" stroke-width="0.034" data-glyph-w="12.7974169921875" data-glyph-h="21.121181640625" data-glyph-ascender="16.98404296875" data-glyph-descender="-4.137138671875"></path><path d="M7.21-6.12L3.61-11.65L3.61-2.34L0.99-2.34L0.99-16.47L3.61-16.47L8.30-9.23L13.01-16.47L15.63-16.47L15.63-2.34L13.01-2.34L13.01-11.66L9.41-6.12L7.21-6.12Z" transform="translate(12.7974169921875 78.81) " fill="#00763a" stroke="#00763a" stroke-width="0.034" data-glyph-w="16.6178369140625" data-glyph-h="21.121181640625" data-glyph-ascender="16.98404296875" data-glyph-descender="-4.137138671875"></path><path d="M4.32-5.51L10.21-5.51L11.50-2.34L14.33-2.34L8.62-16.47L5.91-16.47L0.20-2.34L3.03-2.34L4.32-5.51ZM9.16-8.14L5.37-8.14L7.26-12.82L9.16-8.14Z" transform="translate(29.41525390625 78.81) " fill="#00763a" stroke="#00763a" stroke-width="0.034" data-glyph-w="14.52947265625" data-glyph-h="21.121181640625" data-glyph-ascender="16.98404296875" data-glyph-descender="-4.137138671875"></path><path d="M6.40-7.58L3.61-7.58L3.61-2.34L0.99-2.34L0.99-16.47L7.66-16.47Q9.49-16.47 10.80-15.17L10.80-15.17Q12.09-13.87 12.09-12.03L12.09-12.03Q12.09-10.18 10.80-8.89L10.80-8.89Q10.13-8.22 9.34-7.90L9.34-7.90L13.10-2.34L9.94-2.34L6.40-7.58ZM7.66-13.85L3.61-13.85L3.61-10.20L7.66-10.20Q8.41-10.20 8.94-10.74L8.94-10.74Q9.47-11.27 9.47-12.03L9.47-12.03Q9.47-12.78 8.94-13.31L8.94-13.31Q8.41-13.85 7.66-13.85L7.66-13.85Z" transform="translate(43.9447265625 78.81) " fill="#00763a" stroke="#00763a" stroke-width="0.034" data-glyph-w="12.688544921875" data-glyph-h="21.121181640625" data-glyph-ascender="16.98404296875" data-glyph-descender="-4.137138671875"></path><path d="M4.58-2.34L4.58-13.85L0.59-13.85L0.59-16.47L11.19-16.47L11.19-13.85L7.21-13.85L7.21-2.34L4.58-2.34Z" transform="translate(56.633271484375 78.81) " fill="#00763a" stroke="#00763a" stroke-width="0.034" data-glyph-w="11.7878759765625" data-glyph-h="21.121181640625" data-glyph-ascender="16.98404296875" data-glyph-descender="-4.137138671875"></path><path d="" transform="translate(68.4211474609375 78.81) " fill="#00763a" stroke="#00763a" stroke-width="0.034" data-glyph-w="8.06746" data-glyph-h="20.27" data-glyph-ascender="17.8376" data-glyph-descender="-2.4324"></path><path d="M4.32-5.51L10.21-5.51L11.50-2.34L14.33-2.34L8.62-16.47L5.91-16.47L0.20-2.34L3.03-2.34L4.32-5.51ZM9.16-8.14L5.37-8.14L7.26-12.82L9.16-8.14Z" transform="translate(76.4886074609375 78.81) " fill="#00763a" stroke="#00763a" stroke-width="0.034" data-glyph-w="14.52947265625" data-glyph-h="21.121181640625" data-glyph-ascender="16.98404296875" data-glyph-descender="-4.137138671875"></path><path d="M7.40-10.71L15.11-10.71Q15.23-10.07 15.23-9.40L15.23-9.40Q15.23-6.36 13.08-4.23L13.08-4.23Q10.95-2.08 7.91-2.08L7.91-2.08Q4.88-2.08 2.73-4.23L2.73-4.23Q0.59-6.36 0.59-9.40L0.59-9.40Q0.59-12.43 2.73-14.58L2.73-14.58Q4.88-16.73 7.91-16.73L7.91-16.73Q11.32-16.73 13.52-14.10L13.52-14.10L11.51-12.42Q10.10-14.09 7.91-14.09L7.91-14.09Q5.97-14.09 4.59-12.72L4.59-12.72Q3.22-11.34 3.22-9.40L3.22-9.40Q3.22-7.45 4.59-6.08L4.59-6.08Q5.97-4.70 7.91-4.70L7.91-4.70Q9.86-4.70 11.23-6.08L11.23-6.08Q12.11-6.96 12.43-8.09L12.43-8.09L7.40-8.09L7.40-10.71Z" transform="translate(91.01808011718751 78.81) " fill="#00763a" stroke="#00763a" stroke-width="0.034" data-glyph-w="15.8260400390625" data-glyph-h="21.121181640625" data-glyph-ascender="16.98404296875" data-glyph-descender="-4.137138671875"></path><path d="M6.40-7.58L3.61-7.58L3.61-2.34L0.99-2.34L0.99-16.47L7.66-16.47Q9.49-16.47 10.80-15.17L10.80-15.17Q12.09-13.87 12.09-12.03L12.09-12.03Q12.09-10.18 10.80-8.89L10.80-8.89Q10.13-8.22 9.34-7.90L9.34-7.90L13.10-2.34L9.94-2.34L6.40-7.58ZM7.66-13.85L3.61-13.85L3.61-10.20L7.66-10.20Q8.41-10.20 8.94-10.74L8.94-10.74Q9.47-11.27 9.47-12.03L9.47-12.03Q9.47-12.78 8.94-13.31L8.94-13.31Q8.41-13.85 7.66-13.85L7.66-13.85Z" transform="translate(106.84412015625001 78.81) " fill="#00763a" stroke="#00763a" stroke-width="0.034" data-glyph-w="12.688544921875" data-glyph-h="21.121181640625" data-glyph-ascender="16.98404296875" data-glyph-descender="-4.137138671875"></path><path d="M3.61-2.34L3.61-16.47L0.99-16.47L0.99-2.34L3.61-2.34Z" transform="translate(119.532665078125 78.81) " fill="#00763a" stroke="#00763a" stroke-width="0.034" data-glyph-w="4.6023193359375" data-glyph-h="21.121181640625" data-glyph-ascender="16.98404296875" data-glyph-descender="-4.137138671875"></path><path d="M7.92-16.73Q4.88-16.73 2.74-14.58L2.74-14.58Q0.59-12.43 0.59-9.40L0.59-9.40Q0.59-6.36 2.74-4.23L2.74-4.23Q4.88-2.08 7.92-2.08L7.92-2.08Q11.32-2.08 13.52-4.69L13.52-4.69L11.51-6.38Q10.11-4.70 7.92-4.70L7.92-4.70Q5.97-4.70 4.59-6.08L4.59-6.08Q3.22-7.45 3.22-9.40L3.22-9.40Q3.22-11.34 4.59-12.72L4.59-12.72Q5.97-14.09 7.92-14.09L7.92-14.09Q10.11-14.09 11.51-12.42L11.51-12.42L13.52-14.10Q11.32-16.73 7.92-16.73L7.92-16.73Z" transform="translate(124.1349844140625 78.81) " fill="#00763a" stroke="#00763a" stroke-width="0.034" data-glyph-w="14.113779296875" data-glyph-h="21.121181640625" data-glyph-ascender="16.98404296875" data-glyph-descender="-4.137138671875"></path><path d="M9.47-16.47L12.09-16.47L12.09-6.88Q12.09-4.89 10.47-3.48L10.47-3.48Q8.85-2.08 6.54-2.08L6.54-2.08Q4.25-2.08 2.61-3.48L2.61-3.48Q0.99-4.89 0.99-6.88L0.99-6.88L0.99-16.47L3.61-16.47L3.61-6.88Q3.61-5.98 4.47-5.34L4.47-5.34Q5.33-4.70 6.54-4.70L6.54-4.70Q7.76-4.70 8.61-5.34L8.61-5.34Q9.47-5.98 9.47-6.88L9.47-6.88L9.47-16.47Z" transform="translate(138.2487637109375 78.81) " fill="#00763a" stroke="#00763a" stroke-width="0.034" data-glyph-w="13.084443359375" data-glyph-h="21.121181640625" data-glyph-ascender="16.98404296875" data-glyph-descender="-4.137138671875"></path><path d="M3.61-16.47L3.61-4.96L9.57-4.96L9.57-2.34L0.99-2.34L0.99-16.47L3.61-16.47Z" transform="translate(151.3332070703125 78.81) " fill="#00763a" stroke="#00763a" stroke-width="0.034" data-glyph-w="10.1646923828125" data-glyph-h="21.121181640625" data-glyph-ascender="16.98404296875" data-glyph-descender="-4.137138671875"></path><path d="M4.58-2.34L4.58-13.85L0.59-13.85L0.59-16.47L11.19-16.47L11.19-13.85L7.21-13.85L7.21-2.34L4.58-2.34Z" transform="translate(161.497899453125 78.81) " fill="#00763a" stroke="#00763a" stroke-width="0.034" data-glyph-w="11.7878759765625" data-glyph-h="21.121181640625" data-glyph-ascender="16.98404296875" data-glyph-descender="-4.137138671875"></path><path d="M9.47-16.47L12.09-16.47L12.09-6.88Q12.09-4.89 10.47-3.48L10.47-3.48Q8.85-2.08 6.54-2.08L6.54-2.08Q4.25-2.08 2.61-3.48L2.61-3.48Q0.99-4.89 0.99-6.88L0.99-6.88L0.99-16.47L3.61-16.47L3.61-6.88Q3.61-5.98 4.47-5.34L4.47-5.34Q5.33-4.70 6.54-4.70L6.54-4.70Q7.76-4.70 8.61-5.34L8.61-5.34Q9.47-5.98 9.47-6.88L9.47-6.88L9.47-16.47Z" transform="translate(173.2857754296875 78.81) " fill="#00763a" stroke="#00763a" stroke-width="0.034" data-glyph-w="13.084443359375" data-glyph-h="21.121181640625" data-glyph-ascender="16.98404296875" data-glyph-descender="-4.137138671875"></path><path d="M6.40-7.58L3.61-7.58L3.61-2.34L0.99-2.34L0.99-16.47L7.66-16.47Q9.49-16.47 10.80-15.17L10.80-15.17Q12.09-13.87 12.09-12.03L12.09-12.03Q12.09-10.18 10.80-8.89L10.80-8.89Q10.13-8.22 9.34-7.90L9.34-7.90L13.10-2.34L9.94-2.34L6.40-7.58ZM7.66-13.85L3.61-13.85L3.61-10.20L7.66-10.20Q8.41-10.20 8.94-10.74L8.94-10.74Q9.47-11.27 9.47-12.03L9.47-12.03Q9.47-12.78 8.94-13.31L8.94-13.31Q8.41-13.85 7.66-13.85L7.66-13.85Z" transform="translate(186.3702187890625 78.81) " fill="#00763a" stroke="#00763a" stroke-width="0.034" data-glyph-w="12.688544921875" data-glyph-h="21.121181640625" data-glyph-ascender="16.98404296875" data-glyph-descender="-4.137138671875"></path><path d="M0.99-16.47L11.09-16.47L11.09-13.85L3.61-13.85L3.61-10.71L11.09-10.71L11.09-8.09L3.61-8.09L3.61-4.96L11.09-4.96L11.09-2.34L0.99-2.34L0.99-16.47Z" transform="translate(199.0587637109375 78.81) " fill="#00763a" stroke="#00763a" stroke-width="0.034" data-glyph-w="11.67900390625" data-glyph-h="21.121181640625" data-glyph-ascender="16.98404296875" data-glyph-descender="-4.137138671875"></path></g></svg></g>
        </g>
  </svg>